<?xml version="1.0" encoding="UTF-8" standalone="no"?>
<!DOCTYPE svg PUBLIC "-//W3C//DTD SVG 1.1//EN" "http://www.w3.org/Graphics/SVG/1.1/DTD/svg11.dtd">
<svg width="100%" height="100%" viewBox="0 0 397 397" version="1.1" xmlns="http://www.w3.org/2000/svg" xmlns:xlink="http://www.w3.org/1999/xlink" xml:space="preserve" xmlns:serif="http://www.serif.com/" style="fill-rule:evenodd;clip-rule:evenodd;stroke-linejoin:round;stroke-miterlimit:2;">
    <g transform="matrix(1,0,0,1,19.0757,-435.594)">
        <path d="M377.54,534.748C377.54,480.024 333.11,435.594 278.386,435.594L80.078,435.594C25.354,435.594 -19.076,480.024 -19.076,534.748L-19.076,733.056C-19.076,787.78 25.354,832.21 80.078,832.21L278.386,832.21C333.11,832.21 377.54,787.78 377.54,733.056L377.54,534.748Z" style="fill:rgb(76,65,154);"/>
    </g>
    <g transform="matrix(22.6603,0,0,22.6603,-1938.9,-15938.2)">
        <path d="M95.927,712.473C95.822,712.79 95.689,713.096 95.518,713.38C94.425,715.195 92.658,715.158 92.658,715.158L94.006,708.986C97.061,708.003 96.501,710.739 95.927,712.473ZM90.836,707.409C90.836,707.409 90.92,709.445 90.92,709.445L91.756,709.3C91.251,710.975 90.405,715.544 90.405,715.544L89.9,717.913C91.536,717.793 93.145,717.66 93.76,717.509C93.887,717.478 94.09,717.427 94.308,717.372C94.374,717.359 94.443,717.343 94.515,717.319C94.618,717.293 94.725,717.253 94.835,717.201C95.58,716.934 96.176,716.486 96.632,716.023C97.307,715.34 97.786,714.491 98.066,713.57C101.445,702.439 90.836,707.409 90.836,707.409Z" style="fill:white;fill-rule:nonzero;"/>
    </g>
</svg>
