<?xml version="1.0" encoding="UTF-8" standalone="no"?>
<!DOCTYPE svg PUBLIC "-//W3C//DTD SVG 1.1//EN" "http://www.w3.org/Graphics/SVG/1.1/DTD/svg11.dtd">
<svg width="100%" height="100%" viewBox="0 0 920 296" version="1.1" xmlns="http://www.w3.org/2000/svg" xmlns:xlink="http://www.w3.org/1999/xlink" xml:space="preserve" xmlns:serif="http://www.serif.com/" style="fill-rule:evenodd;clip-rule:evenodd;stroke-linejoin:round;stroke-miterlimit:2;">
    <g transform="matrix(4.94042,0,0,4.94042,5142.58,-21176)">
        <path d="M-1012.5,4317.97C-1013,4319.46 -1013.62,4320.9 -1014.43,4322.24C-1019.58,4330.8 -1027.91,4330.62 -1027.91,4330.62L-1021.56,4301.52C-1007.15,4296.89 -1009.79,4309.79 -1012.5,4317.97ZM-1036.51,4294.09L-1036.11,4303.69L-1032.17,4303C-1034.55,4310.9 -1038.54,4332.45 -1038.54,4332.45L-1040.92,4343.62C-1033.21,4343.05 -1025.62,4342.42 -1022.72,4341.71C-1022.12,4341.56 -1021.16,4341.32 -1020.13,4341.06C-1019.82,4341.01 -1019.5,4340.93 -1019.16,4340.82C-1018.67,4340.69 -1018.17,4340.5 -1017.65,4340.26C-1014.13,4339 -1011.33,4336.89 -1009.17,4334.71C-1005.99,4331.48 -1003.74,4327.48 -1002.42,4323.14C-986.48,4270.66 -1036.51,4294.09 -1036.51,4294.09L-1036.51,4294.09Z" style="fill:rgb(76,65,154);fill-rule:nonzero;"/>
    </g>
    <g transform="matrix(4.94042,0,0,4.94042,5142.58,-21176)">
        <path d="M-984.05,4312.87C-984.204,4312.87 -984.05,4312.87 -984.05,4312.87C-983.402,4305.76 -980.452,4302.58 -980.452,4302.58C-980.092,4302.07 -979.624,4301.69 -979.034,4301.51C-977.641,4301.08 -976.182,4301.51 -975.268,4302.58C-974.103,4303.95 -972.451,4307.45 -972.04,4309.64C-975.943,4311.58 -984.05,4312.87 -984.05,4312.87L-984.05,4312.87ZM-958.435,4313.38C-958.572,4308.18 -959.752,4306.34 -959.752,4306.34L-961.325,4306.76C-963.867,4295.73 -969.336,4290.99 -972.46,4289.99C-976.602,4288.65 -981.337,4289.34 -984.775,4292.2C-991.715,4298 -994.775,4306.74 -995.876,4315.47L-998.444,4316.04C-999.285,4317.31 -998.894,4325.58 -997.979,4325.45L-997.979,4325.45L-997.979,4325.45C-997.979,4325.45 -997.406,4325.4 -996.386,4325.26C-996.232,4336.3 -993.893,4345.32 -993.893,4345.32L-983.669,4342.98C-983.669,4342.98 -984.422,4332.98 -984.069,4323.04C-980.654,4322.69 -975.484,4321.52 -971.489,4319.65C-970.676,4324.86 -971.39,4337.12 -971.39,4337.12L-961.457,4336.53C-959.969,4327.72 -959.687,4320.42 -960.171,4314.42C-959.581,4314.08 -959.001,4313.73 -958.435,4313.38L-958.435,4313.38Z" style="fill:rgb(76,65,154);fill-rule:nonzero;"/>
    </g>
    <g transform="matrix(4.94042,0,0,4.94042,5142.58,-21176)">
        <path d="M-959.494,4337.78L-949.123,4346.03L-944.393,4318.36L-926.134,4341.98L-914.399,4293.88L-925.87,4288.62L-932.246,4315.96L-951.847,4294.27L-959.494,4337.78L-959.494,4337.78Z" style="fill:rgb(76,65,154);fill-rule:nonzero;"/>
    </g>
    <g transform="matrix(4.94042,0,0,4.94042,5142.58,-21176)">
        <path d="M-871.01,4296.56L-880.219,4286.27L-897.541,4303.72L-892.924,4288L-905.091,4291.06L-908.926,4310.94L-915.316,4344.07L-903.141,4342.11L-902.078,4327.05L-887.537,4343.52L-878.218,4331.26L-896.402,4315.66L-871.01,4296.56L-871.01,4296.56Z" style="fill:rgb(76,65,154);fill-rule:nonzero;"/>
    </g>
    <g transform="matrix(4.94042,0,0,4.94042,5142.58,-21176)">
        <path d="M-870.891,4334C-873.068,4336.35 -872.75,4340.16 -870.183,4342.5C-867.615,4344.85 -863.769,4344.85 -861.593,4342.5C-859.416,4340.15 -859.733,4336.34 -862.301,4334C-864.869,4331.65 -868.715,4331.65 -870.891,4334L-870.891,4334ZM-865.352,4288.31L-869.92,4329.09L-859.474,4330.61L-854.801,4288.23L-865.352,4288.31L-865.352,4288.31Z" style="fill:rgb(76,65,154);fill-rule:nonzero;"/>
    </g>
</svg>
